HIERARCHY
ROOT Hips
{
	OFFSET 0.000000 89.005402 0.000000
	CHANNELS 6 Xposition Yposition Zposition Xrotation Yrotation Zrotation
	JOINT Spine
	{
		OFFSET 0.116900 10.681000 0.373400
		CHANNELS 3 Xrotation Yrotation Zrotation
		JOINT Spine1
		{
			OFFSET 0.000000 13.840401 0.053500
			CHANNELS 3 Xrotation Yrotation Zrotation
			JOINT Spine2
			{
				OFFSET 0.000000 14.712700 -0.366200
				CHANNELS 3 Xrotation Yrotation Zrotation
				JOINT Neck
				{
					OFFSET 0.000000 35.415497 -3.314200
					CHANNELS 3 Xrotation Yrotation Zrotation
					JOINT Head
					{
						OFFSET 0.000000 16.899200 1.218300
						CHANNELS 3 Xrotation Yrotation Zrotation
						JOINT HeadTop_End
						{
							OFFSET 0.000000 22.206207 2.192500
							CHANNELS 3 Xrotation Yrotation Zrotation
							End Site
							{
								OFFSET 0.000000 22.314178 0.000000
							}
						}
					}
				}
				JOINT LeftShoulder
				{
					OFFSET 12.896400 26.716293 -4.548400
					CHANNELS 3 Xrotation Yrotation Zrotation
					JOINT LeftArm
					{
						OFFSET 19.027000 -4.857010 -1.718400
						CHANNELS 3 Xrotation Yrotation Zrotation
						JOINT LeftForeArm
						{
							OFFSET 24.179897 0.000000 0.000000
							CHANNELS 3 Xrotation Yrotation Zrotation
							JOINT LeftHand
							{
								OFFSET 27.156403 0.000000 0.000000
								CHANNELS 3 Xrotation Yrotation Zrotation
								JOINT LeftHandIndex1
								{
									OFFSET 16.441200 0.000000 0.000000
									CHANNELS 3 Xrotation Yrotation Zrotation
									JOINT LeftHandIndex2
									{
										OFFSET 4.821899 0.000000 0.000000
										CHANNELS 3 Xrotation Yrotation Zrotation
										JOINT LeftHandIndex3
										{
											OFFSET 6.386497 0.000000 0.000000
											CHANNELS 3 Xrotation Yrotation Zrotation
											JOINT LeftHandIndex4
											{
												OFFSET 5.188988 0.000000 0.000000
												CHANNELS 3 Xrotation Yrotation Zrotation
												End Site
												{
													OFFSET -0.178703 5.185913 0.000177
												}
											}
										}
									}
								}
								JOINT LeftHandThumb1
								{
									OFFSET 6.534897 -5.032593 5.900300
									CHANNELS 3 Xrotation Yrotation Zrotation
									JOINT LeftHandThumb2
									{
										OFFSET 3.818176 -2.204422 2.204423
										CHANNELS 3 Xrotation Yrotation Zrotation
										JOINT LeftHandThumb3
										{
											OFFSET 3.252098 -1.877594 1.877601
											CHANNELS 3 Xrotation Yrotation Zrotation
											JOINT LeftHandThumb4
											{
												OFFSET 5.251778 -3.032120 3.032117
												CHANNELS 3 Xrotation Yrotation Zrotation
												End Site
												{
													OFFSET 0.000023 6.780014 0.000000
												}
											}
										}
									}
								}
							}
						}
					}
				}
				JOINT RightShoulder
				{
					OFFSET -12.896300 26.716293 -4.548400
					CHANNELS 3 Xrotation Yrotation Zrotation
					JOINT RightArm
					{
						OFFSET -19.027000 -4.857010 -1.718400
						CHANNELS 3 Xrotation Yrotation Zrotation
						JOINT RightForeArm
						{
							OFFSET -24.179897 0.000000 0.000000
							CHANNELS 3 Xrotation Yrotation Zrotation
							JOINT RightHand
							{
								OFFSET -27.156403 0.000000 0.000000
								CHANNELS 3 Xrotation Yrotation Zrotation
								JOINT RightHandThumb1
								{
									OFFSET -6.591202 -4.852203 5.988100
									CHANNELS 3 Xrotation Yrotation Zrotation
									JOINT RightHandThumb2
									{
										OFFSET -3.818176 -2.204422 2.204423
										CHANNELS 3 Xrotation Yrotation Zrotation
										JOINT RightHandThumb3
										{
											OFFSET -3.252098 -1.877594 1.877601
											CHANNELS 3 Xrotation Yrotation Zrotation
											JOINT RightHandThumb4
											{
												OFFSET -5.251778 -3.032120 3.032117
												CHANNELS 3 Xrotation Yrotation Zrotation
												End Site
												{
													OFFSET -0.000023 6.780014 0.000000
												}
											}
										}
									}
								}
								JOINT RightHandIndex1
								{
									OFFSET -16.029404 0.000000 0.000000
									CHANNELS 3 Xrotation Yrotation Zrotation
									JOINT RightHandIndex2
									{
										OFFSET -5.213303 0.000000 0.000000
										CHANNELS 3 Xrotation Yrotation Zrotation
										JOINT RightHandIndex3
										{
											OFFSET -6.386528 0.000000 0.000000
											CHANNELS 3 Xrotation Yrotation Zrotation
											JOINT RightHandIndex4
											{
												OFFSET -5.189026 0.000000 0.000000
												CHANNELS 3 Xrotation Yrotation Zrotation
												End Site
												{
													OFFSET 0.236702 5.183624 0.001972
												}
											}
										}
									}
								}
							}
						}
					}
				}
			}
		}
	}
	JOINT LeftUpLeg
	{
		OFFSET 14.073000 -7.904099 -1.463000
		CHANNELS 3 Xrotation Yrotation Zrotation
		JOINT LeftLeg
		{
			OFFSET -0.109806 -34.073280 4.093200
			CHANNELS 3 Xrotation Yrotation Zrotation
			JOINT LeftFoot
			{
				OFFSET 0.109806 -29.899420 -6.319000
				CHANNELS 3 Xrotation Yrotation Zrotation
				JOINT LeftToeBase
				{
					OFFSET 1.551100 -14.988700 20.535801
					CHANNELS 3 Xrotation Yrotation Zrotation
					JOINT LeftToe_End
					{
						OFFSET 0.221200 0.570800 13.248301
						CHANNELS 3 Xrotation Yrotation Zrotation
						End Site
						{
							OFFSET 0.000000 13.262435 0.000000
						}
					}
				}
			}
		}
	}
	JOINT RightUpLeg
	{
		OFFSET -13.839300 -7.904099 -1.463000
		CHANNELS 3 Xrotation Yrotation Zrotation
		JOINT RightLeg
		{
			OFFSET 0.109694 -34.073219 4.093300
			CHANNELS 3 Xrotation Yrotation Zrotation
			JOINT RightFoot
			{
				OFFSET -0.109694 -29.899384 -6.319200
				CHANNELS 3 Xrotation Yrotation Zrotation
				JOINT RightToeBase
				{
					OFFSET -1.551100 -14.988700 20.535801
					CHANNELS 3 Xrotation Yrotation Zrotation
					JOINT RightToe_End
					{
						OFFSET -0.221200 0.570900 13.248299
						CHANNELS 3 Xrotation Yrotation Zrotation
						End Site
						{
							OFFSET 0.000000 13.262440 0.000000
						}
					}
				}
			}
		}
	}
}
MOTION
Frames: 4
Frame Time: 0.033333
8.522977 77.084167 0.073971 14.486297 -18.811208 3.964927 10.708027 -0.049385 -3.214286 8.377294 0.437312 -1.468470 8.365984 0.513422 -1.491781 -0.654044 -0.061075 -8.137931 -43.636914 -6.809564 1.497023 0.000000 -0.000001 -0.000001 0.646345 2.211350 -8.405889 -9.336179 -12.532935 -32.538369 0.000033 -106.213403 0.000051 30.106835 -8.605901 28.781403 0.179358 1.564358 -13.079356 0.179338 1.564352 -13.079359 0.044974 0.787303 -6.538449 -0.000001 -0.000000 0.000001 -1.540038 3.690191 6.142362 3.364164 28.760243 6.120772 -0.396857 11.944229 5.256771 0.000002 -0.000000 -0.000000 1.632603 10.985982 10.676653 -22.562505 25.454705 56.084708 0.000006 101.285353 -0.000001 38.003750 1.258897 -5.339021 -1.849256 -3.581788 -6.586142 4.817447 -10.581452 -0.367006 -1.180524 -0.833780 -2.201514 0.000000 -0.000000 -0.000000 1.554570 -4.386714 39.011390 1.554565 -4.386717 39.011373 0.399376 -2.326753 19.475919 -0.000000 0.000002 0.000001 -47.857899 6.807714 27.643198 41.987420 1.527378 0.340340 -2.436265 2.186681 -18.551574 -2.641910 -0.000008 0.000010 0.000000 0.000000 0.000000 -36.324684 4.814385 -23.653710 42.344007 3.367158 2.357859 -12.156588 -3.637357 21.505783 -9.139281 0.000002 0.000007 0.000000 0.000002 0.000000 
7.969518 76.996666 -0.443726 15.000257 -20.675205 3.868661 10.860570 -0.339518 -3.447265 8.484913 0.272495 -1.570223 8.472503 0.348648 -1.594697 -0.850557 0.357441 -8.477060 -44.239094 -4.886949 1.774464 -0.000000 0.000001 -0.000001 0.749866 2.294320 -10.554293 -11.420474 -12.045398 -31.237744 0.000028 -104.819710 0.000036 28.229411 -8.596497 30.018142 0.179358 1.564360 -13.079357 0.179340 1.564355 -13.079361 0.044973 0.787306 -6.538454 0.000000 0.000004 0.000001 -1.540032 3.690189 6.142361 3.348274 30.172542 6.257314 -0.362575 12.648715 5.322809 0.000001 0.000000 -0.000001 1.646515 10.994151 10.685820 -20.653676 27.359463 57.282225 0.000088 101.388114 -0.000079 36.302039 1.175626 -5.160900 -1.849246 -3.581806 -6.586143 4.817431 -10.581444 -0.366999 -1.180503 -0.833798 -2.201532 0.000002 -0.000000 0.000000 1.190919 -3.896465 33.979433 1.190906 -3.896471 33.979426 0.303936 -2.037079 16.969458 -0.000000 -0.000001 -0.000000 -47.560974 6.040595 29.352461 41.826699 2.736684 0.207433 -2.064868 2.289157 -19.895772 -2.614739 0.000001 -0.000001 -0.000000 -0.000000 0.000000 -38.003924 4.228175 -21.388490 42.227791 3.808931 1.146357 -12.179051 -3.309595 20.781761 -9.240987 -0.000005 0.000002 -0.000000 0.000000 -0.000000 
7.969518 76.996666 -0.443726 15.000257 -20.675205 3.868661 10.860570 -0.339518 -3.447265 8.484913 0.272495 -1.570223 8.472503 0.348648 -1.594697 -0.850557 0.357441 -8.477060 -44.239094 -4.886949 1.774464 -0.000000 0.000001 -0.000001 0.749866 2.294320 -10.554293 -11.420474 -12.045398 -31.237744 0.000028 -104.819710 0.000036 28.229411 -8.596497 30.018142 0.179358 1.564360 -13.079357 0.179340 1.564355 -13.079361 0.044973 0.787306 -6.538454 0.000000 0.000004 0.000001 -1.540032 3.690189 6.142361 3.348274 30.172542 6.257314 -0.362575 12.648715 5.322809 0.000001 0.000000 -0.000001 1.646515 10.994151 10.685820 -20.653676 27.359463 57.282225 0.000088 101.388114 -0.000079 36.302039 1.175626 -5.160900 -1.849246 -3.581806 -6.586143 4.817431 -10.581444 -0.366999 -1.180503 -0.833798 -2.201532 0.000002 -0.000000 0.000000 1.190919 -3.896465 33.979433 1.190906 -3.896471 33.979426 0.303936 -2.037079 16.969458 -0.000000 -0.000001 -0.000000 -47.560974 6.040595 29.352461 41.826699 2.736684 0.207433 -2.064868 2.289157 -19.895772 -2.614739 0.000001 -0.000001 -0.000000 -0.000000 0.000000 -38.003924 4.228175 -21.388490 42.227791 3.808931 1.146357 -12.179051 -3.309595 20.781761 -9.240987 -0.000005 0.000002 -0.000000 0.000000 -0.000000 
7.969518 76.996666 -0.443726 15.000257 -20.675205 3.868661 10.860570 -0.339518 -3.447265 8.484913 0.272495 -1.570223 8.472503 0.348648 -1.594697 -0.850557 0.357441 -8.477060 -44.239094 -4.886949 1.774464 -0.000000 0.000001 -0.000001 0.749866 2.294320 -10.554293 -11.420474 -12.045398 -31.237744 0.000028 -104.819710 0.000036 28.229411 -8.596497 30.018142 0.179358 1.564360 -13.079357 0.179340 1.564355 -13.079361 0.044973 0.787306 -6.538454 0.000000 0.000004 0.000001 -1.540032 3.690189 6.142361 3.348274 30.172542 6.257314 -0.362575 12.648715 5.322809 0.000001 0.000000 -0.000001 1.646515 10.994151 10.685820 -20.653676 27.359463 57.282225 0.000088 101.388114 -0.000079 36.302039 1.175626 -5.160900 -1.849246 -3.581806 -6.586143 4.817431 -10.581444 -0.366999 -1.180503 -0.833798 -2.201532 0.000002 -0.000000 0.000000 1.190919 -3.896465 33.979433 1.190906 -3.896471 33.979426 0.303936 -2.037079 16.969458 -0.000000 -0.000001 -0.000000 -47.560974 6.040595 29.352461 41.826699 2.736684 0.207433 -2.064868 2.289157 -19.895772 -2.614739 0.000001 -0.000001 -0.000000 -0.000000 0.000000 -38.003924 4.228175 -21.388490 42.227791 3.808931 1.146357 -12.179051 -3.309595 20.781761 -9.240987 -0.000005 0.000002 -0.000000 0.000000 -0.000000 
